<?xml version="1.0" encoding="UTF-8" standalone="no"?>
<svg
   version="1.1"
   width="1024"
   height="244"
   id="svg17"
   sodipodi:docname="-niezle-ziolko-3-01-2025.svg"
   inkscape:version="1.3.2 (091e20e, 2023-11-25, custom)"
   xmlns:inkscape="http://www.inkscape.org/namespaces/inkscape"
   xmlns:sodipodi="http://sodipodi.sourceforge.net/DTD/sodipodi-0.dtd"
   xmlns="http://www.w3.org/2000/svg"
   xmlns:svg="http://www.w3.org/2000/svg">
  <defs
     id="defs17">
    <rect
       x="37.329234"
       y="25.252129"
       width="86.186613"
       height="103.75331"
       id="rect21" />
    <rect
       x="9.3161486"
       y="24.843063"
       width="700.26384"
       height="125.76801"
       id="rect20" />
    <rect
       x="46.661542"
       y="54.346973"
       width="184.99929"
       height="109.2429"
       id="rect19" />
    <rect
       x="47.745262"
       y="61.331312"
       width="169.63154"
       height="135.8605"
       id="rect18" />
    <rect
       x="30.192763"
       y="68.070956"
       width="247.03169"
       height="236.05251"
       id="rect17" />
  </defs>
  <sodipodi:namedview
     id="namedview17"
     pagecolor="#ffffff"
     bordercolor="#000000"
     borderopacity="0.25"
     inkscape:showpageshadow="2"
     inkscape:pageopacity="0.0"
     inkscape:pagecheckerboard="0"
     inkscape:deskcolor="#d1d1d1"
     inkscape:zoom="0.64404297"
     inkscape:cx="595.45716"
     inkscape:cy="73.752843"
     inkscape:window-width="1920"
     inkscape:window-height="991"
     inkscape:window-x="-9"
     inkscape:window-y="-9"
     inkscape:window-maximized="1"
     inkscape:current-layer="svg17" />
  <path
     d="M0 0 C6.93 0 13.86 0 21 0 C21 24.42 21 48.84 21 74 C29.33588409 64.98702724 29.33588409 64.98702724 37.5625 55.875 C42.49540519 50.36493589 47.73336562 45.18892993 53 40 C53.42982178 39.46262207 53.85964355 38.92524414 54.30249023 38.37158203 C56.72562264 36.41369941 58.46108283 36.65811243 61.54296875 36.70703125 C63.15268555 36.7215332 63.15268555 36.7215332 64.79492188 36.73632812 C65.91447266 36.76146484 67.03402344 36.78660156 68.1875 36.8125 C69.31865234 36.82603516 70.44980469 36.83957031 71.61523438 36.85351562 C74.41063317 36.88890042 77.20507892 36.93827052 80 37 C80 41 80 41 77.40234375 43.953125 C76.2564275 45.0614977 75.10090066 46.15999403 73.9375 47.25 C72.73251966 48.41344607 71.52937972 49.57880138 70.328125 50.74609375 C69.74869141 51.3066748 69.16925781 51.86725586 68.57226562 52.44482422 C66.09838519 54.89181464 63.86242206 57.51699633 61.61328125 60.16796875 C59.16537018 62.94779997 56.50565846 65.50415724 53.8671875 68.1015625 C51.40070885 70.60932113 49.19640856 73.25448931 47 76 C48.60211082 81.27448174 51.98619768 85.08214661 55.375 89.3125 C56.64705451 90.92221282 57.91786457 92.53290974 59.1875 94.14453125 C60.1465625 95.36003662 60.1465625 95.36003662 61.125 96.60009766 C64.44025234 100.84344798 67.64432352 105.16881477 70.85400391 109.4921875 C74.3219476 114.1460051 77.92035881 118.65188713 81.671875 123.08203125 C83 125 83 125 83 128 C61.52965932 130.83332941 61.52965932 130.83332941 54.58789062 126.49121094 C50.37640818 122.43320817 47.43374491 117.54735242 44.51464844 112.515625 C42.06477203 108.44671357 39.14878054 104.7549421 36.25 101 C35.27437425 99.68873897 34.30027278 98.37634161 33.328125 97.0625 C31.16808061 94.07809058 31.16808061 94.07809058 29 92 C25.99055817 93.55057113 23.9572577 95.22245142 22 98 C20.96182195 103.11463135 21.01853489 108.18229898 21.0625 113.375 C21.04937936 114.79300146 21.03313364 116.21097765 21.01367188 117.62890625 C20.96714494 121.0880825 20.98509758 124.53838096 21 128 C13.74 128 6.48 128 -1 128 C-1.02311879 111.45852879 -1.04097912 94.9170642 -1.05181217 78.37558079 C-1.05697515 70.69561273 -1.06401789 63.01565487 -1.07543945 55.33569336 C-1.08538623 48.64422011 -1.09185341 41.95275424 -1.09408849 35.2612738 C-1.09539561 31.71604399 -1.09848153 28.17083532 -1.10573006 24.62561226 C-1.1137438 20.67431355 -1.11399114 16.7230358 -1.11352539 12.77172852 C-1.11712067 11.58778 -1.12071594 10.40383148 -1.12442017 9.18400574 C-1.1230455 8.11403351 -1.12167084 7.04406128 -1.12025452 5.94166565 C-1.12117631 5.00604577 -1.1220981 4.07042589 -1.12304783 3.1064539 C-1 1 -1 1 0 0 Z "
     fill="#E43136"
     transform="translate(813,45)"
     id="path1" />
  <path
     d="M0 0 C13.03740052 -0.38617893 24.47272552 2.26728016 34.33203125 11.15625 C44.33917387 21.61231116 47.51110052 34.35945249 47.421875 48.46484375 C47.41450317 49.84687988 47.41450317 49.84687988 47.40698242 51.25683594 C47.18266186 64.32954806 43.81930257 75.70644762 34.890625 85.5234375 C24.28094311 95.22571238 11.52103556 96.91708696 -2.28125 96.5 C-14.41614497 95.80792402 -22.81952422 90.53201084 -31.078125 82.02734375 C-42.26326327 69.03673041 -41.88401395 52.32959951 -40.890625 36.15234375 C-39.43997476 24.77146919 -32.96033324 14.90073691 -24.1953125 7.6875 C-16.74965146 2.72793256 -8.83891012 0.46583445 0 0 Z M-11.64453125 25.98828125 C-17.17794437 32.94838161 -18.23559192 39.27020343 -18.203125 47.96484375 C-18.21923828 48.81626953 -18.23535156 49.66769531 -18.25195312 50.54492188 C-18.25788212 58.32969511 -16.94007154 65.68676957 -11.515625 71.58984375 C-10.66871094 72.54697266 -10.66871094 72.54697266 -9.8046875 73.5234375 C-4.96308657 77.6437387 0.14752137 77.52524695 6.234375 77.3984375 C11.44917531 76.95206193 14.07945014 75.13436512 17.796875 71.58984375 C24.8124918 62.19796964 24.115345 49.31054397 23.109375 38.15234375 C21.81415095 31.19051449 19.42815258 26.51826144 13.79296875 22.17578125 C5.78304646 17.30664055 -5.36714011 19.41729275 -11.64453125 25.98828125 Z "
     fill="#0064D4"
     transform="translate(931.890625,79.84765625)"
     id="path2" />
  <path
     d="M0 0 C10.71837031 10.89851098 14.40730622 23.32487362 14.3125 38.3125 C14.30512817 39.69453613 14.30512817 39.69453613 14.29760742 41.10449219 C14.07328686 54.17720431 10.70992757 65.55410387 1.78125 75.37109375 C-8.82843189 85.07336863 -21.58833944 86.76474321 -35.390625 86.34765625 C-47.52551997 85.65558027 -55.92889922 80.37966709 -64.1875 71.875 C-75.3611433 58.89773711 -75.01608873 42.16605482 -74 26 C-72.59890677 15.52255646 -67.07367999 5.7892309 -59 -1 C-41.02130798 -13.08651564 -17.30917711 -14.17172258 0 0 Z M-46.703125 17.890625 C-50.60879736 24.24322463 -50.33583621 31.15010883 -50.3125 38.375 C-50.32861328 39.365 -50.34472656 40.355 -50.36132812 41.375 C-50.36614327 48.67475315 -49.81864709 55.54488421 -45.0625 61.375 C-44.381875 61.91125 -43.70125 62.4475 -43 63 C-42.319375 63.556875 -41.63875 64.11375 -40.9375 64.6875 C-35.92409955 68.0836745 -29.8035542 67.53443884 -24 67 C-18.79799792 65.35972907 -14.76857235 61.64471113 -12 57 C-7.39390335 47.63981965 -7.24873414 33.77670675 -10.125 23.8125 C-12.49322808 18.17965844 -15.99133182 14.22095517 -21.1875 11.0625 C-31.69849823 8.13320541 -39.45204526 9.70392207 -46.703125 17.890625 Z "
     fill="#F6AF00"
     transform="translate(755,90)"
     id="path3" />
  <path
     d="M0 0 C7.72744338 7.60878782 10.4961215 16.47285049 12 27 C12 32.94 12 38.88 12 45 C-7.47 45 -26.94 45 -47 45 C-45.03481867 56.15920983 -45.03481867 56.15920983 -41 61 C-41 61.66 -41 62.32 -41 63 C-29.57753417 69.18716899 -19.17642635 69.32331288 -6.734375 65.8671875 C-4.26806629 65.08501531 -1.85303653 64.23816181 0.5625 63.3125 C4 62 4 62 7 62 C8.57314184 65.14628368 8.26696326 68.48581488 8.3125 71.9375 C8.35600586 73.03094727 8.35600586 73.03094727 8.40039062 74.14648438 C8.46365073 79.45546671 8.46365073 79.45546671 6.41015625 81.8671875 C-8.12178005 88.69743309 -28.16211488 89.75098189 -43.46484375 85.0390625 C-53.85897335 80.77891077 -61.37086682 74.40351123 -66.95703125 64.69921875 C-70.05416102 56.68380052 -70.31471695 48.49949326 -70.25 40 C-70.25773437 38.98421875 -70.26546875 37.9684375 -70.2734375 36.921875 C-70.24064209 24.13166546 -67.75261724 11.8602719 -58.8125 2.125 C-42.81110693 -12.29035191 -17.00345383 -13.46720693 0 0 Z M-41.875 15.625 C-45.81517611 19.96835692 -45.53962797 22.42832587 -47 29 C-34.79 29 -22.58 29 -10 29 C-12.17364398 18.83941769 -12.17364398 18.83941769 -18.75 11.6875 C-27.45684605 7.16663763 -35.1716058 8.67178987 -41.875 15.625 Z "
     fill="#F6B000"
     transform="translate(503,89)"
     id="path5" />
  <path
     d="M0 0 C1.18802719 0.00222061 2.37605438 0.00444122 3.6000824 0.00672913 C4.58053528 0.00651009 4.58053528 0.00651009 5.58079529 0.00628662 C7.75058766 0.00698569 9.92029517 0.01477774 12.09007263 0.02259827 C13.59079949 0.02446247 15.09152696 0.02588636 16.59225464 0.02688599 C20.54934865 0.03071099 24.50640616 0.04054112 28.46348572 0.05158997 C32.49851488 0.06180446 36.53354991 0.06638369 40.56858826 0.07142639 C48.49113108 0.08216341 56.41364419 0.09923962 64.33616638 0.12025452 C65.42535846 17.72255663 65.42535846 17.72255663 60.12132263 24.04774475 C59.53222107 24.66979797 58.94311951 25.2918512 58.33616638 25.93275452 C57.12511619 27.35492461 55.91677897 28.77940941 54.71116638 30.20619202 C54.12464294 30.87618225 53.53811951 31.54617249 52.93382263 32.23646545 C50.83808029 34.70754551 49.07983015 37.32952199 47.33616638 40.05775452 C43.97295019 45.2237116 40.43922967 50.24517971 36.83616638 55.24525452 C36.31409607 55.97349426 35.79202576 56.70173401 35.25413513 57.45204163 C31.11508751 63.17340196 26.76199969 68.58796288 22.33616638 74.12025452 C36.52616638 74.45025452 50.71616638 74.78025452 65.33616638 75.12025452 C65.33616638 80.73025452 65.33616638 86.34025452 65.33616638 92.12025452 C41.90616638 92.12025452 18.47616638 92.12025452 -5.66383362 92.12025452 C-5.66383362 74.00321838 -5.66383362 74.00321838 1.36741638 66.50697327 C4.61528711 62.89382421 7.33587421 58.99322008 10.08616638 54.99525452 C15.07950344 47.83704841 20.21990804 40.79727904 25.44065857 33.80335999 C26.2667865 32.69178528 26.2667865 32.69178528 27.10960388 31.55775452 C27.58832947 30.91709045 28.06705505 30.27642639 28.56028748 29.61634827 C31.24222401 25.84674157 33.76995287 21.96957478 36.33616638 18.12025452 C23.13616638 18.12025452 9.93616638 18.12025452 -3.66383362 18.12025452 C-3.66383362 0.16539792 -3.66383362 0.16539792 0 0 Z "
     fill="#E43136"
     transform="translate(579.6638336181641,81.87974548339844)"
     id="path7" />
  <path
     d="M0 0 C0.89460937 -0.00128906 1.78921875 -0.00257812 2.7109375 -0.00390625 C3.65195312 -0.00003906 4.59296875 0.00382812 5.5625 0.0078125 C6.97402344 0.00201172 6.97402344 0.00201172 8.4140625 -0.00390625 C9.75597656 -0.00197266 9.75597656 -0.00197266 11.125 0 C11.95128906 0.00112793 12.77757812 0.00225586 13.62890625 0.00341797 C15.5625 0.1328125 15.5625 0.1328125 16.5625 1.1328125 C16.65858663 2.77771799 16.68437787 4.42676941 16.68275452 6.07447815 C16.68412918 7.14445038 16.68550385 8.21442261 16.68692017 9.31681824 C16.68332489 10.50076675 16.67972961 11.68471527 16.67602539 12.90454102 C16.67617142 14.1433905 16.67631744 15.38223999 16.6764679 16.65863037 C16.67588892 20.06551083 16.67085959 23.47233134 16.66389394 26.87920117 C16.65765993 30.43598076 16.65705656 33.99276108 16.65586853 37.54954529 C16.65275535 44.28917832 16.64454215 51.02879521 16.63451904 57.76842111 C16.62335748 65.43939648 16.61784735 73.11037261 16.61282361 80.78135407 C16.60235952 96.56518316 16.58455988 112.34899512 16.5625 128.1328125 C9.3025 128.1328125 2.0425 128.1328125 -5.4375 128.1328125 C-5.46061879 111.59134129 -5.47847912 95.0498767 -5.48931217 78.50839329 C-5.49447515 70.82842523 -5.50151789 63.14846737 -5.51293945 55.46850586 C-5.52288623 48.77703261 -5.52935341 42.08556674 -5.53158849 35.3940863 C-5.53289561 31.84885649 -5.53598153 28.30364782 -5.54323006 24.75842476 C-5.5512438 20.80712605 -5.55149114 16.8558483 -5.55102539 12.90454102 C-5.55462067 11.7205925 -5.55821594 10.53664398 -5.56192017 9.31681824 C-5.5605455 8.24684601 -5.55917084 7.17687378 -5.55775452 6.07447815 C-5.55867631 5.13885827 -5.5595981 4.20323839 -5.56054783 3.2392664 C-5.33398885 -0.63919323 -3.40158003 0.00464334 0 0 Z "
     fill="#87BB14"
     transform="translate(782.4375,44.8671875)"
     id="path10" />
  <path
     d="M0 0 C6.93 0 13.86 0 21 0 C21 30.36 21 60.72 21 92 C14.07 92 7.14 92 0 92 C-1.83118084 90.16881916 -1.12645259 87.61232955 -1.13552856 85.1751709 C-1.13350433 84.33877075 -1.1314801 83.50237061 -1.12939453 82.640625 C-1.13114685 81.76426392 -1.13289917 80.88790283 -1.13470459 79.98498535 C-1.13912432 77.07330373 -1.13618469 74.1616823 -1.1328125 71.25 C-1.1334855 69.23600248 -1.1344555 67.22200505 -1.13571167 65.20800781 C-1.13718881 60.98111195 -1.13503358 56.75423717 -1.13037109 52.52734375 C-1.1246738 47.09619468 -1.12795272 41.66509501 -1.13394356 36.23394775 C-1.13754874 32.07340113 -1.13641078 27.91286631 -1.13381577 23.75231934 C-1.13314638 21.74914545 -1.13397533 19.74597051 -1.13629532 17.74279785 C-1.13882115 14.94829448 -1.13498224 12.15387229 -1.12939453 9.359375 C-1.13141876 8.52297485 -1.13344299 7.68657471 -1.13552856 6.8248291 C-1.11426242 1.11426242 -1.11426242 1.11426242 0 0 Z "
     fill="#006BD6"
     transform="translate(651,82)"
     id="path12" />
  <path
     d="M0 0 C24.42 0 48.84 0 74 0 C74 4.29 74 8.58 74 13 C49.58 13 25.16 13 0 13 C0 8.71 0 4.42 0 0 Z "
     fill="#86BA14"
     transform="translate(509,186)"
     id="path13" />
  <path
     d="M0 0 C24.09 0 48.18 0 73 0 C73 4.29 73 8.58 73 13 C48.91 13 24.82 13 0 13 C0 8.71 0 4.42 0 0 Z "
     fill="#E43136"
     transform="translate(45,186)"
     id="path14" />
  <path
     d="M0 0 C2.6875 1.6875 2.6875 1.6875 4.6875 4.6875 C5.35152455 9.8847691 6.05329796 15.8913782 3.6953125 20.71875 C0.79906439 23.53318319 -2.4606944 24.03471781 -6.3125 24.25 C-10.96160506 24.00494175 -13.79103187 22.85682132 -17.3125 19.6875 C-19.8722308 15.4683575 -19.98819551 11.50078777 -19.3125 6.6875 C-17.59666355 3.19227761 -16.34562564 1.30179092 -13 -0.6875 C-8.21561301 -1.80014814 -4.59541887 -1.82082635 0 0 Z "
     fill="#0061D4"
     transform="translate(668.3125,48.3125)"
     id="path16" />
  <text
     xml:space="preserve"
     id="text17"
     style="font-size:192px;white-space:pre;shape-inside:url(#rect17);fill:#0064d4;fill-opacity:1;stroke:#e7e9ea;stroke-width:1.344"
     transform="matrix(1.8948929,0,0,1.8757419,50.729376,-283.94179)"><tspan
       x="30.193359"
       y="243.23773"
       id="tspan2"><tspan
         style="font-size:96px;font-family:Univers;-inkscape-font-specification:Univers;stroke:#0064d4"
         id="tspan1">n</tspan></tspan></text>
  <text
     xml:space="preserve"
     id="text18"
     style="font-style:normal;font-variant:normal;font-weight:normal;font-stretch:normal;font-size:96px;font-family:Univers;-inkscape-font-specification:Univers;white-space:pre;shape-inside:url(#rect18);fill:#f5b300;fill-opacity:1;stroke:none;stroke-width:1.344;stroke-opacity:1"
     transform="matrix(2.2033071,0,0,1.8004035,90.121077,-94.156998)"><tspan
       x="47.746094"
       y="148.69979"
       id="tspan3">i</tspan></text>
  <text
     xml:space="preserve"
     id="text19"
     style="font-style:normal;font-variant:normal;font-weight:normal;font-stretch:normal;font-size:96px;font-family:Univers;-inkscape-font-specification:Univers;white-space:pre;shape-inside:url(#rect19);fill:#87bb14;fill-opacity:1;stroke:none;stroke-width:1.344;stroke-opacity:1"
     transform="matrix(1.9192609,0,0,1.9058334,141.10529,-99.356851)"><tspan
       x="46.662109"
       y="141.71542"
       id="tspan4">e</tspan></text>
  <text
     xml:space="preserve"
     id="text20"
     style="font-style:normal;font-variant:normal;font-weight:normal;font-stretch:normal;font-size:96px;font-family:Univers;-inkscape-font-specification:Univers;white-space:pre;shape-inside:url(#rect20);fill:#e43136;fill-opacity:1;stroke:none;stroke-width:1.344;stroke-opacity:1"
     transform="matrix(2.0459101,0,0,1.9424898,301.05879,-44.489765)"><tspan
       x="9.3164062"
       y="112.21151"
       id="tspan5">z</tspan></text>
  <text
     xml:space="preserve"
     id="text21"
     style="fill:#e43136;stroke:none;stroke-width:1.344;fill-opacity:1;stroke-opacity:1;-inkscape-font-specification:Univers;font-family:Univers;font-weight:normal;font-style:normal;font-stretch:normal;font-variant:normal;font-size:96px;white-space:pre;shape-inside:url(#rect21)" />
  <text
     xml:space="preserve"
     style="font-style:normal;font-variant:normal;font-weight:normal;font-stretch:normal;font-size:210.649px;font-family:Univers;-inkscape-font-specification:Univers;fill:#0064d4;fill-opacity:1;stroke:none;stroke-width:2.94909;stroke-opacity:1"
     x="322.06226"
     y="205.7148"
     id="text22"
     transform="scale(1.1861855,0.84303846)"><tspan
       sodipodi:role="line"
       id="tspan22"
       x="322.06226"
       y="205.7148"
       style="stroke-width:2.94909">l</tspan></text>
</svg>
